<svg width="29px" height="28px" viewBox="0 0 29 28" version="1.1" xmlns="http://www.w3.org/2000/svg" xmlns:xlink="http://www.w3.org/1999/xlink">
    <!-- Generator: Sketch 46.2 (44496) - http://www.bohemiancoding.com/sketch -->
    <desc>Created with Sketch.</desc>
    <defs></defs>
    <g id="Page-1" stroke="none" stroke-width="1" fill="none" fill-rule="evenodd">
        <g id="Artboard" transform="translate(-337.000000, -6.000000)">
            <g id="Nav">
                <g id="ic_add_circle_outline_black_24px" transform="translate(334.821429, 4.000000)">
                    <polygon id="Shape" points="0 0 33.9972527 0 33.9972527 32 0 32"></polygon>
                    <path d="M18.4151786,9.33333333 L15.5820742,9.33333333 L15.5820742,14.6666667 L9.91586538,14.6666667 L9.91586538,17.3333333 L15.5820742,17.3333333 L15.5820742,22.6666667 L18.4151786,22.6666667 L18.4151786,17.3333333 L24.0813874,17.3333333 L24.0813874,14.6666667 L18.4151786,14.6666667 L18.4151786,9.33333333 Z M16.9986264,2.66666667 C9.17925824,2.66666667 2.8331044,8.64 2.8331044,16 C2.8331044,23.36 9.17925824,29.3333333 16.9986264,29.3333333 C24.8179945,29.3333333 31.1641484,23.36 31.1641484,16 C31.1641484,8.64 24.8179945,2.66666667 16.9986264,2.66666667 Z M16.9986264,26.6666667 C10.7516312,26.6666667 5.66620879,21.88 5.66620879,16 C5.66620879,10.12 10.7516312,5.33333333 16.9986264,5.33333333 C23.2456216,5.33333333 28.331044,10.12 28.331044,16 C28.331044,21.88 23.2456216,26.6666667 16.9986264,26.6666667 Z" id="Shape" fill="#FFFFFF" fill-rule="nonzero"></path>
                </g>
            </g>
        </g>
    </g>
</svg>
