<svg width="54px" height="54px" viewBox="0 0 54 54" version="1.1" xmlns="http://www.w3.org/2000/svg" xmlns:xlink="http://www.w3.org/1999/xlink">
    <!-- Generator: Sketch 46.2 (44496) - http://www.bohemiancoding.com/sketch -->
    <desc>Created with Sketch.</desc>
    <defs></defs>
    <g id="Page-1" stroke="none" stroke-width="1" fill="none" fill-rule="evenodd">
        <g id="Artboard" transform="translate(-160.000000, -168.000000)">
            <g id="Card" transform="translate(12.000000, 56.000000)">
                <g id="ic_play_circle_outline_black_24px" transform="translate(143.000000, 107.000000)">
                    <polygon id="Shape" points="0 0 64 0 64 64 0 64"></polygon>
                    <path d="M26.6666667,44 L42.6666667,32 L26.6666667,20 L26.6666667,44 Z M32,5.33333333 C17.28,5.33333333 5.33333333,17.28 5.33333333,32 C5.33333333,46.72 17.28,58.6666667 32,58.6666667 C46.72,58.6666667 58.6666667,46.72 58.6666667,32 C58.6666667,17.28 46.72,5.33333333 32,5.33333333 Z M32,53.3333333 C20.24,53.3333333 10.6666667,43.76 10.6666667,32 C10.6666667,20.24 20.24,10.6666667 32,10.6666667 C43.76,10.6666667 53.3333333,20.24 53.3333333,32 C53.3333333,43.76 43.76,53.3333333 32,53.3333333 Z" id="Shape" fill="#26A69A" fill-rule="nonzero"></path>
                </g>
            </g>
        </g>
    </g>
</svg>
