<svg width="26px" height="24px" viewBox="0 0 26 24" version="1.1" xmlns="http://www.w3.org/2000/svg" xmlns:xlink="http://www.w3.org/1999/xlink">
    <!-- Generator: Sketch 46.2 (44496) - http://www.bohemiancoding.com/sketch -->
    <desc>Created with Sketch.</desc>
    <defs></defs>
    <g id="Page-1" stroke="none" stroke-width="1" fill="none" fill-rule="evenodd">
        <g id="Artboard" transform="translate(-8.000000, -8.000000)">
            <g id="Nav">
                <g id="ic_search_black_24px-(1)" transform="translate(4.120879, 4.000000)">
                    <path d="M21.9565591,18.6666667 L20.8374828,18.6666667 L20.4408482,18.3066667 C21.8290694,16.7866667 22.6648352,14.8133333 22.6648352,12.6666667 C22.6648352,7.88 18.5426683,4 13.4572459,4 C8.37182349,4 4.24965659,7.88 4.24965659,12.6666667 C4.24965659,17.4533333 8.37182349,21.3333333 13.4572459,21.3333333 C15.7378949,21.3333333 17.8343922,20.5466667 19.4492617,19.24 L19.8317308,19.6133333 L19.8317308,20.6666667 L26.9144918,27.32 L29.0251545,25.3333333 L21.9565591,18.6666667 Z M13.4572459,18.6666667 C9.93003091,18.6666667 7.08276099,15.9866667 7.08276099,12.6666667 C7.08276099,9.34666667 9.93003091,6.66666667 13.4572459,6.66666667 C16.9844609,6.66666667 19.8317308,9.34666667 19.8317308,12.6666667 C19.8317308,15.9866667 16.9844609,18.6666667 13.4572459,18.6666667 Z" id="Shape" fill="#FFFFFF" fill-rule="nonzero"></path>
                    <polygon id="Shape" points="0 0 33.9972527 0 33.9972527 32 0 32"></polygon>
                </g>
            </g>
        </g>
    </g>
</svg>
